<svg width="22" height="22" viewBox="0 0 22 22" fill="none" xmlns="http://www.w3.org/2000/svg">
<path d="M11 13.1093L5.67772 18.4314C5.39399 18.7153 5.0425 18.8573 4.62327 18.8573C4.20403 18.8573 3.85255 18.7153 3.56882 18.4314C3.2849 18.1477 3.14294 17.7962 3.14294 17.377C3.14294 16.9577 3.2849 16.6062 3.56882 16.3225L8.89087 11.0002L3.56882 5.67784C3.2849 5.39411 3.14294 5.04263 3.14294 4.62339C3.14294 4.20416 3.2849 3.85267 3.56882 3.56894C3.85255 3.28503 4.20403 3.14307 4.62327 3.14307C5.0425 3.14307 5.39399 3.28503 5.67772 3.56894L11 8.89099L16.3224 3.56894C16.6061 3.28503 16.9576 3.14307 17.3768 3.14307C17.7961 3.14307 18.1475 3.28503 18.4313 3.56894C18.7152 3.85267 18.8572 4.20416 18.8572 4.62339C18.8572 5.04263 18.7152 5.39411 18.4313 5.67784L13.1092 11.0002L18.4313 16.3225C18.7152 16.6062 18.8572 16.9577 18.8572 17.377C18.8572 17.7962 18.7152 18.1477 18.4313 18.4314C18.1475 18.7153 17.7961 18.8573 17.3768 18.8573C16.9576 18.8573 16.6061 18.7153 16.3224 18.4314L11 13.1093Z" fill="white"/>
</svg>
