<svg width="14" height="14" viewBox="0 0 14 14" fill="none" xmlns="http://www.w3.org/2000/svg">
<g clip-path="url(#clip0_3861_35508)">
<path d="M7 14C10.866 14 14 10.866 14 7C14 3.13401 10.866 0 7 0C3.13401 0 0 3.13401 0 7C0 10.866 3.13401 14 7 14Z" fill="#D80027"/>
<path d="M3.83086 4.25977L4.43516 6.11914H6.39023L4.80977 7.27031L5.41406 9.12969L3.83086 7.98125L2.24766 9.12969L2.85469 7.27031L1.27148 6.11914H3.22656L3.83086 4.25977Z" fill="#FFDA44"/>
<path d="M8.29885 10.8416L7.83674 10.2729L7.15315 10.5381L7.54963 9.92285L7.08752 9.35137L7.79573 9.54004L8.19495 8.9248L8.23323 9.65762L8.94416 9.84629L8.25784 10.1088L8.29885 10.8416Z" fill="#FFDA44"/>
<path d="M9.2176 9.17363L9.43635 8.47363L8.83752 8.0498L9.57034 8.03887L9.78635 7.33887L10.0242 8.0334L10.7571 8.0252L10.1692 8.4627L10.4043 9.15723L9.80549 8.7334L9.2176 9.17363Z" fill="#FFDA44"/>
<path d="M10.4562 5.13779L10.1336 5.79678L10.6586 6.30811L9.93396 6.2042L9.6113 6.86045L9.48552 6.13857L8.75818 6.03467L9.40896 5.69287L9.28318 4.96826L9.80818 5.47959L10.4562 5.13779Z" fill="#FFDA44"/>
<path d="M8.31802 3.1416L8.26333 3.87168L8.94419 4.14785L8.23052 4.32285L8.17856 5.05566L7.79302 4.43223L7.07935 4.60723L7.55239 4.04668L7.16411 3.42598L7.84497 3.70215L8.31802 3.1416Z" fill="#FFDA44"/>
</g>
<defs>
<clipPath id="clip0_3861_35508">
<rect width="14" height="14" fill="white"/>
</clipPath>
</defs>
</svg>
